<?xml version="1.0" encoding="utf-8"?>
<!-- Generator: Adobe Illustrator 16.0.3, SVG Export Plug-In . SVG Version: 6.00 Build 0)  -->
<!DOCTYPE svg PUBLIC "-//W3C//DTD SVG 1.1//EN" "http://www.w3.org/Graphics/SVG/1.1/DTD/svg11.dtd">
<svg version="1.1" id="eye" xmlns="http://www.w3.org/2000/svg" xmlns:xlink="http://www.w3.org/1999/xlink" x="0px" y="0px"
	 width="518.047px" height="300px" viewBox="46.977 154.862 518.047 300" enable-background="new 46.977 154.862 518.047 300"
	 xml:space="preserve">
<path id="outline" fill="#100D0D" d="M307.053,173.444c-22.813-0.496-45.598,2.822-67.662,8.497
	c-11.035,2.872-21.875,6.475-32.45,10.707c-10.564,4.263-20.842,9.219-30.734,14.833c-19.775,11.25-37.933,25.249-53.738,41.496
	c-15.853,16.21-29.273,34.702-40.124,54.558l-0.006-2.46c11.161,19.514,24.829,37.575,40.753,53.373
	c15.907,15.812,34.033,29.34,53.604,40.252c19.571,10.926,40.553,19.281,62.186,25.128c10.817,2.923,21.805,5.226,32.877,6.869
	c5.535,0.82,11.093,1.478,16.654,1.938c2.78,0.229,5.562,0.411,8.333,0.528c1.386,0.058,2.771,0.101,4.138,0.118
	c1.329,0.019,2.761-0.009,4.182-0.014l2.138-0.009l2.042-0.032c1.376-0.034,2.762-0.091,4.147-0.16
	c2.772-0.143,5.554-0.344,8.332-0.592c5.557-0.498,11.105-1.183,16.632-2.027c11.052-1.694,22.009-4.032,32.786-6.984
	c21.546-5.929,42.385-14.368,61.719-25.383c19.376-10.934,37.163-24.576,52.629-40.477c15.496-15.873,28.646-34.01,39.149-53.621
	l0.086,4.811c-5.396-9.595-11.36-18.868-17.905-27.715c-6.514-8.87-13.562-17.356-21.189-25.313
	c-15.163-15.996-32.536-29.981-51.548-41.415c-18.983-11.483-39.571-20.441-60.985-26.713c-10.717-3.097-21.62-5.619-32.659-7.359
	c-5.52-0.862-11.067-1.557-16.633-2.056c-5.562-0.485-11.161-0.83-16.72-0.779L307.053,173.444z M307.094,172.445
	c5.631-0.141,11.22,0.115,16.812,0.512c5.604,0.412,11.19,1.02,16.756,1.798c11.13,1.547,22.19,3.672,33.087,6.505
	c21.8,5.595,43.04,13.705,62.965,24.489c19.899,10.808,38.444,24.319,54.786,40.21c8.133,7.978,15.754,16.498,22.744,25.513
	c6.962,9.037,13.331,18.527,19.112,28.356l1.375,2.336l-1.289,2.475c-5.344,10.262-11.417,20.161-18.166,29.59
	s-14.25,18.327-22.341,26.643c-16.218,16.615-35.004,30.635-55.228,41.862c-20.272,11.181-41.98,19.534-64.271,25.324
	c-11.147,2.902-22.453,5.164-33.854,6.766c-5.701,0.798-11.428,1.432-17.18,1.873c-2.876,0.22-5.758,0.392-8.65,0.503
	c-1.448,0.055-2.898,0.095-4.359,0.113l-2.212,0.006l-2.117-0.019c-1.417-0.016-2.821-0.004-4.328-0.04
	c-1.469-0.035-2.92-0.096-4.369-0.173c-2.895-0.154-5.772-0.374-8.645-0.644c-5.742-0.54-11.451-1.278-17.129-2.186
	c-11.356-1.813-22.593-4.3-33.649-7.418c-22.106-6.238-43.516-15.038-63.459-26.462c-19.942-11.409-38.376-25.487-54.483-41.858
	c-16.126-16.355-29.886-34.971-41.034-54.976l-0.696-1.249l0.69-1.212c11.401-20.037,25.438-38.596,41.839-54.765
	c16.403-16.167,35.178-29.834,55.379-40.697c10.093-5.453,20.547-10.207,31.244-14.299c10.686-4.123,21.635-7.528,32.727-10.334
	c11.089-2.824,22.35-4.948,33.69-6.446c11.329-1.509,22.8-2.333,34.229-2.099L307.094,172.445z M307.083,231.918
	c11.393,0.392,22.513,5.051,30.934,12.958c4.223,3.934,7.75,8.7,10.254,14.022c1.238,2.665,2.242,5.457,2.938,8.339
	c0.683,2.883,1.084,5.843,1.191,8.822c0.188,5.964-0.854,12.008-3.079,17.615c-2.217,5.609-5.593,10.777-9.85,15.104
	c-4.271,4.316-9.405,7.794-15.033,10.176c-5.645,2.389-11.694,3.664-17.916,3.765c-6.047,0.116-12.307-0.932-18.106-3.1
	c-5.819-2.169-11.249-5.485-15.861-9.757c-4.593-4.288-8.333-9.556-10.79-15.408c-1.208-2.929-2.158-5.976-2.712-9.098
	c-0.553-3.135-0.796-6.255-0.701-9.47c0.214-6.397,2.147-12.641,5.16-18.005c3.036-5.383,7.066-10.007,11.644-13.799
	c4.581-3.788,9.669-6.833,15.067-8.963c5.381-2.134,11.113-3.406,16.854-3.202L307.083,231.918z M307.054,232.918
	c-5.557,0.017-11.003,1.729-15.78,4.417c-4.784,2.715-8.962,6.363-12.372,10.515c-6.799,8.332-10.771,18.476-10.578,28.196
	c0.164,9.883,4.221,19.55,11.157,26.73c6.89,7.25,16.756,11.761,27.139,11.941c5.05,0.121,10.274-0.734,15.087-2.559
	c4.831-1.817,9.323-4.595,13.131-8.141c3.826-3.524,6.962-7.831,9.127-12.607c2.173-4.773,3.353-10.013,3.455-15.319
	c0.264-10.608-3.558-21.495-10.896-29.758c-3.66-4.117-8.184-7.537-13.251-9.863C318.204,234.155,312.642,232.906,307.054,232.918z
	 M307.279,391.352l-0.046,0.001c-7.316,0.136-14.654-0.545-21.881-1.633c-7.232-1.118-14.403-2.63-21.458-4.577
	c-14.097-3.927-27.774-9.44-40.566-16.628c-12.803-7.158-24.713-15.97-35.328-26.174c-5.303-5.107-10.291-10.549-14.924-16.284
	c-4.634-5.735-8.881-11.781-12.807-18.025l-0.644-1.023l0.63-1.092c6.284-10.894,13.602-21.243,22.012-30.683
	c8.442-9.404,17.98-17.868,28.429-25.052l6.238-4.29l-2.036,7.333c-1.933,6.963-3.102,14.119-3.36,21.303
	c-0.26,7.211,0.345,14.393,1.773,21.447c2.854,14.087,9.137,27.418,18.065,38.634c8.913,11.232,20.429,20.351,33.339,26.494
	c12.906,6.163,27.188,9.323,41.459,9.263c14.271-0.035,28.481-3.271,41.258-9.471c12.789-6.168,24.09-15.311,32.784-26.435
	c8.682-11.128,14.82-24.197,17.57-37.98c1.39-6.882,1.936-13.938,1.695-20.945c-0.225-6.975-1.349-13.952-3.217-20.756
	l-3.792-13.819l11.741,8.184c5.165,3.6,10.091,7.537,14.782,11.721c4.68,4.196,9.146,8.628,13.289,13.338
	c4.149,4.703,8.038,9.622,11.66,14.715c3.641,5.082,6.963,10.373,10.026,15.792l1.33,2.354l-1.319,2.133
	c-3.888,6.284-8.066,12.397-12.729,18.131c-4.636,5.75-9.641,11.194-14.964,16.287c-10.652,10.184-22.637,18.899-35.507,25.844
	c-12.847,6.999-26.533,12.261-40.565,15.989c-7.025,1.842-14.149,3.258-21.318,4.323
	C321.743,390.786,314.546,391.458,307.279,391.352z M307.335,390.35c7.127-0.042,14.291-0.853,21.347-2.002
	c7.097-1.154,14.101-2.839,20.968-4.923c13.75-4.128,26.919-10.069,39.059-17.555c12.124-7.516,23.195-16.601,32.862-26.934
	c9.668-10.343,17.882-21.93,24.802-34.207l0.011,4.486c-3.155-5.057-6.521-9.967-10.064-14.726
	c-3.559-4.75-7.353-9.31-11.373-13.645c-4.028-4.326-8.226-8.489-12.678-12.357c-4.441-3.881-9.114-7.482-13.958-10.83l7.949-5.635
	c2.08,7.513,3.362,15.297,3.635,23.173c0.247,7.839-0.49,15.687-2.106,23.351c-3.234,15.329-10.184,29.839-20.066,41.904
	c-9.836,12.108-22.465,21.829-36.536,28.36c-14.071,6.548-29.61,9.804-45.046,9.589c-15.438-0.162-30.838-3.796-44.654-10.638
	c-13.823-6.819-26.052-16.797-35.44-28.978c-9.405-12.163-15.928-26.541-18.763-41.626c-1.42-7.524-1.955-15.258-1.568-22.887
	c0.383-7.66,1.735-15.246,3.881-22.564l4.202,3.043c-10.177,6.786-19.512,14.839-27.84,23.845
	c-8.377,8.967-15.757,18.887-22.168,29.415l-0.014-2.115c7.396,12.407,16.144,24.035,26.256,34.402
	c10.11,10.363,21.591,19.43,34.098,26.835c12.506,7.398,25.999,13.182,40.017,17.127c7.004,1.983,14.131,3.562,21.339,4.597
	c7.208,1.041,14.465,1.674,21.752,1.497L307.335,390.35z"/>
<path id="pupil" fill="#961B1E" d="M282.722,259.377c2.79-5.006,7.213-9.13,12.828-11.601c2.804-1.223,5.91-2.041,9.199-2.247
	c3.282-0.21,6.75,0.2,10.104,1.327c3.354,1.121,6.622,2.997,9.403,5.575c2.774,2.574,5.069,5.826,6.541,9.5
	c1.48,3.665,2.158,7.739,1.893,11.814c-0.124,2.037-0.495,4.069-1.076,6.04c-0.299,0.983-0.64,1.955-1.038,2.901
	c-0.203,0.472-0.419,0.938-0.644,1.398l-0.347,0.686l-0.414,0.768l-0.27,0.465l-0.459,0.745c-0.283,0.445-0.562,0.861-0.859,1.283
	c-0.587,0.842-1.244,1.635-1.925,2.403c-1.369,1.532-2.91,2.91-4.581,4.084c-3.335,2.363-7.165,3.924-11.071,4.579
	c-3.907,0.667-7.887,0.417-11.54-0.616c-3.68-1.036-6.922-2.815-9.727-5.151c-2.617-2.224-4.851-5.014-6.361-7.918
	c-1.543-2.918-2.461-6.002-2.878-9.035C278.687,270.291,279.91,264.369,282.722,259.377z M282.722,259.377
	c-1.398,2.504-2.209,5.334-2.322,8.166c-0.12,2.831,0.452,5.65,1.603,8.13c1.139,2.487,2.867,4.613,4.875,6.201
	c0.997,0.801,2.089,1.447,3.188,1.98c0.555,0.264,1.121,0.488,1.688,0.685c0.283,0.097,0.571,0.188,0.852,0.268l0.381,0.09
	l0.527,0.162c2.195,0.474,4.508,0.517,6.525,0.148c2.044-0.356,3.89-1.072,5.503-1.962c1.615-0.897,2.998-1.981,4.168-3.168
	c0.583-0.6,1.117-1.219,1.609-1.869c0.249-0.322,0.469-0.667,0.7-1.001l0.324-0.511l0.369-0.641
	c1.489-2.657,2.479-5.991,2.327-9.687c-0.145-3.677-1.475-7.884-4.802-11.266c-1.648-1.676-3.736-3.082-6.152-3.958
	c-2.406-0.881-5.126-1.232-7.844-0.901c-2.716,0.319-5.419,1.307-7.771,2.889C286.119,254.709,284.127,256.877,282.722,259.377z"/>
</svg>
